<svg xmlns="http://www.w3.org/2000/svg" version="1.1" xmlns:xlink="http://www.w3.org/1999/xlink" xmlns:svgjs="http://svgjs.com/svgjs" width="100" height="100"><svg version="1.1" x="0px" y="0px" viewBox="0 0 100 100" enable-background="new 0 0 100 100" xml:space="preserve" id="SvgjsSvg1008" sodipodi:docname="favicon.svg" inkscape:version="1.1.1 (3bf5ae0d25, 2021-09-20)" xmlns:inkscape="http://www.inkscape.org/namespaces/inkscape" xmlns:sodipodi="http://sodipodi.sourceforge.net/DTD/sodipodi-0.dtd" xmlns="http://www.w3.org/2000/svg" xmlns:svg="http://www.w3.org/2000/svg"><defs id="SvgjsDefs1007"></defs><sodipodi:namedview id="SvgjsSodipodi:namedview1006" pagecolor="#ffffff" bordercolor="#666666" borderopacity="1.0" inkscape:pageshadow="2" inkscape:pageopacity="0.0" inkscape:pagecheckerboard="0" showgrid="false" showguides="true" inkscape:guide-bbox="true" inkscape:zoom="4.12" inkscape:cx="71.723301" inkscape:cy="41.019417" inkscape:window-width="1920" inkscape:window-height="1010" inkscape:window-x="-6" inkscape:window-y="-6" inkscape:window-maximized="1" inkscape:current-layer="g12955"></sodipodi:namedview><g id="SvgjsG1005" transform="translate(-156.66679,-52.854235)"><g id="SvgjsG1004" transform="matrix(1.2556672,0,0,1.2556672,-52.450169,-27.319078)"><path d="m 235.86989,105.32669 c 0,0 -1.851,-20.209006 -27.242,-17.377006 l -1.814,-5.038 c 0,0 10.479,1.822 14.444,-17.828 0,0 -14.66,-0.239 -15.121,15.012 l -3.265,-4.676 -1.022,1.262 c 0,0 2.194,2.592 3.281,7.689 -1.53,-3.23 -6.71,-10.195 -22.62201,-8.666 0,0 6.789,14.889 22.91401,10.315 0.096,0.654 0.179,1.333 0.231,2.055 -3.68,-0.253 -37.37101,-1.588 -25.19901,35.517006 0,0 10.17,28.018 38.60401,16.60399 -0.001,0 20.339,-8.71699 16.811,-34.86899 z" id="SvgjsPath1003" style="fill:#db3444;fill-opacity:1" sodipodi:nodetypes="cccccccccccccc"></path><path id="SvgjsPath1002" style="fill:#668000;fill-opacity:1" d="m 64.591797,12.228516 c 0,0 -14.660094,-0.237329 -15.121094,15.013672 l -3.265625,-4.675782 -1.021484,1.261719 c 0,0 2.19425,2.5905 3.28125,7.6875 -1.53,-3.23 -6.711037,-10.195016 -22.623047,-8.666016 0,0 6.789052,14.890407 22.914062,10.316407 0.096,0.654 0.178469,1.332687 0.230469,2.054687 -0.06025,-0.0041 -0.191568,-0.0091 -0.267578,-0.01367 a 1.7807219,1.5645328 0 0 0 -0.0957,0.302735 1.7807219,1.5645328 0 0 0 1.78125,1.566406 1.7807219,1.5645328 0 0 0 1.779297,-1.566406 1.7807219,1.5645328 0 0 0 -0.132813,-0.421875 c -0.03076,0.0034 -0.05901,0.0044 -0.08984,0.0078 L 50.14649,30.056631 c 0,0 10.480313,1.821875 14.445313,-17.828125 z" transform="translate(156.66679,52.854235)"></path><path id="SvgjsPath1001" style="fill:#802933;fill-opacity:1" d="m 209.58789,106.11719 -1.48828,1.76953 v 4.07812 l -1.73828,-0.0273 -3.73438,4.56836 v 3.75976 H 202.125 v 5.08204 h -2.69336 v -8.45508 h -9.4668 v 7.49804 l -2.57812,-2.71874 -1.70508,1.79687 v -4.00781 h -6.41992 c 0.33879,1.32723 0.7207,2.69001 1.19336,4.13086 0,0 7.17713,19.74985 26.31445,19.32226 1.88704,-0.0644 3.85256,-0.30135 5.89649,-0.74218 0.63702,-0.1374 1.28363,-0.29866 1.93554,-0.47657 0.21771,-0.0603 0.44003,-0.12817 0.66016,-0.19336 0.48407,-0.14141 0.96889,-0.28653 1.46094,-0.45117 0.76642,-0.2589 1.54115,-0.53642 2.33593,-0.85547 -7e-5,0 0.31378,-0.15414 0.53516,-0.26172 0.18019,-0.0905 0.36912,-0.18587 0.63477,-0.33203 0.0122,-0.007 0.0267,-0.0147 0.0391,-0.0215 0.0114,-0.006 0.0295,-0.017 0.041,-0.0234 0.35677,-0.19821 0.78051,-0.446 1.25391,-0.74414 0.0346,-0.0216 0.0684,-0.0423 0.10352,-0.0644 0.75907,-0.48278 1.63869,-1.09273 2.58789,-1.84375 0.62052,-0.49097 1.27085,-1.04468 1.93164,-1.65821 0.0434,-0.0401 0.0873,-0.0785 0.13086,-0.11914 1.7084,-1.60393 3.48833,-3.62636 5.06445,-6.12304 h 0.0254 c 1.06195,-1.68454 2.0281,-3.58531 2.81641,-5.71875 v -0.71289 h -5.46094 v 3.19531 h -2.21094 l -3.93359,-4.14453 -3.94336,4.15429 h -1.62305 v -5.51172 h -0.50195 v -3.75976 l -3.73242,-4.56836 -1.73829,0.0273 v -4.07812 z"></path></g></g><g id="SvgjsG1000" transform="translate(91.077312,46.768084)"></g></svg><style>@media (prefers-color-scheme: light) { :root { filter: none; } }
</style></svg>