<svg xmlns="http://www.w3.org/2000/svg" width="347.832" height="137.137" xmlns:v="https://vecta.io/nano"><path d="M116.968 28.716c1.851 1.534 3.227 3.94 3.015 6.395.086 8.437-.106 17.123 2.687 25.2 1.597 4.665 5.435 9.062 10.62 9.472 4.116.639 8.445-.739 11.289-3.815 4.902-4.951 6.127-12.308 5.738-19.012-.219-7.684-.871-15.417-2.937-22.849 1.053-2.708 5.519-1.887 6.38.656 2.172 4.657 1.803 9.974 1.628 14.977-.75 7.536.076 15.274-2.11 22.629-1.336 5.032-4.427 9.934-9.424 11.95-4.688 1.966-10.095 2.08-14.971.751-5.621-1.697-9.561-6.723-11.34-12.148-2.978-9.065-2.949-18.726-3.43-28.158-.175-1.621-.539-3.296 1.053-4.246l1.803-1.803zm42.392 18.856c-.532-1.811 1.321-4.979 3.264-3.267 2.47 2.454 3.663 5.83 5.091 8.931.823 1.947 1.59 3.918 2.349 5.891 1.968-5.212 3.747-10.937 8.232-14.59 4.031-3.5 11.3-2.691 13.901 2.167.856 1.68 1.537 4.432-.368 5.647-1.609.869-3.849 1.169-4.88-.654-.969-1.147-2.14-2.333-3.777-1.75-2.495.444-4.023 2.779-4.715 5.041-1.074 3.357-1.098 6.975-.744 10.45.52 3.466 2.192 6.929 1.4 10.473-1.022 2.139-4.151 1.928-5.693.504-3.358-2.703-5.449-6.602-7.478-10.324-2.685-5.225-4.924-10.719-6.32-16.432-.141-.687-.249-1.384-.264-2.086zm46.929 26.726c-5.179-14.689-10.995-29.658-10.698-45.494.513-3.616-1.112-8.049 1.431-11.002 1.779-2.378 5.382-2.372 4.177 1.306.131 13.178.366 27.078 6.646 39.017.821 1.617 1.88 3.477 1.563.518.143-5.281.52-11.817 5.581-14.844 5.823-3.048 14.262-1.845 17.84 4.075 4.415 6.587 2.448 15.679-2.798 21.208-4.994 5.641-13.029 10.145-20.693 7.698a6.58 6.58 0 0 1-3.048-2.481zm16.801-25.875c-4.221 1.808-6.924 5.851-7.844 10.244-.957 3.617-1.239 7.368-1.372 11.094 5.495.632 10.14-3.407 13.847-6.955 3.073-2.702 3.89-7.483.827-10.524-1.461-1.63-3.105-3.697-5.459-3.859zm46.999 19.778c-4.694 3.159-9.217 7.52-15.228 7.634-4.824.5-10.705-.44-13.28-5.072-3.273-6.123-2.125-13.701.625-19.793 3.289-6.951 9.277-13.739 17.328-14.667 6.197-.517 12.745 3.257 14.541 9.386 3.065 8.921 1.431 18.725 4.501 27.643 1.512 1.905-1.64 7.07-3.754 4.203-2.213-2.728-3.243-6.199-4.733-9.334zm-24.457-6.097c-.096 2.9.679 6.831 4.074 7.426 7.427 1.866 15.969-3.253 17.259-10.942.367-3.335.382-6.742.112-10.092-.373-2.511-1.224-6.014-4.294-6.246-6.76-.03-12.349 5.273-15.058 11.107-1.255 2.736-2.044 5.728-2.092 8.747zm37.997-8.648c-.333-2.295 2.088-3.895 4.171-3.49 1.58 2.438 1.163 6.362 3.333 8.853.665 1.434 2.289 2.342 1.92.007 1.227-5.501 5.846-9.935 11.13-11.625 4.815-1.087 10.034 1.41 12.381 5.725 2.983 4.963 3.528 10.904 4.023 16.552.122 2.1.156 4.204.189 6.307h-5.175c-.763-6.275-1.311-12.733-3.785-18.613-1.183-1.678-2.478-3.848-4.622-4.293-2.746-.187-4.425 2.578-5.626 4.65-2.613 5.441-3.313 11.548-4.102 17.465-.215 2.094-3.602 2.114-4.853.77-3.673-3.008-4.823-7.876-6.337-12.156-1.04-3.341-1.885-6.74-2.645-10.154z"/><path d="M97.344 70.553s-2.785-30.408-40.99-26.147l-2.729-7.581S69.392 39.567 75.358 10c0 0-22.058-.36-22.752 22.588l-4.913-7.036-1.538 1.899s3.301 3.9 4.937 11.569c-2.302-4.86-10.096-15.34-34.039-13.039 0 0 10.215 22.403 34.478 15.521.144.984.269 2.006.348 3.092-5.537-.381-56.231-2.389-37.916 53.441 0 0 15.302 42.158 58.086 24.983-.001 0 30.603-13.116 25.295-52.466z" fill="#db3444"/><path d="M75.359 9.999s-22.059-.357-22.752 22.591l-4.914-7.035-1.537 1.898s3.302 3.898 4.937 11.567c-2.302-4.86-10.098-15.34-34.04-13.039 0 0 10.215 22.405 34.478 15.523.144.984.269 2.005.347 3.092-.091-.006-.288-.014-.403-.021-.065.147-.114.3-.144.456-.001.625.281 1.225.784 1.667s1.185.69 1.896.69 1.392-.249 1.894-.691.784-1.041.783-1.666c-.032-.219-.1-.432-.2-.635-.046.005-.089.007-.135.012l-2.73-7.582s15.769 2.741 21.735-26.825z" fill="#668000"/><path d="M57.799 71.742l-2.239 2.663v6.136l-2.616-.041-5.619 6.874v5.657h-.755v7.647h-4.053V87.955H28.273v11.282l-3.879-4.091-2.566 2.704v-6.03h-9.66l1.796 6.216s10.799 29.717 39.594 29.074c2.839-.097 5.797-.453 8.872-1.117a55.72 55.72 0 0 0 2.912-.717l.993-.291a59.1 59.1 0 0 0 2.198-.679 66.41 66.41 0 0 0 3.515-1.287 250.06 250.06 0 0 1 .805-.394 26.21 26.21 0 0 0 .955-.5l.059-.032.062-.035a40.12 40.12 0 0 0 1.887-1.12l.156-.097a46.61 46.61 0 0 0 3.894-2.774l2.906-2.495.197-.179c2.571-2.413 5.249-5.456 7.62-9.213h.038c1.598-2.535 3.052-5.395 4.238-8.605v-1.073h-8.217v4.808h-3.327l-5.919-6.236-5.933 6.251h-2.442v-8.293h-.755v-5.657L62.657 80.5l-2.616.041v-6.136z" fill="#802933"/><path d="M111.289 109.652c.061-8.145 5.539-16.409 13.603-18.519 3.869-1.136 8.621-.079 10.826 3.523 2.708 4.181 2.281 9.535 1.058 14.141-1.618 5.885-6.046 11.288-12.163 12.733-3.488.88-7.756.629-10.163-2.401-2.29-2.567-3.142-6.11-3.161-9.477zm3.733.966c.099 3.037 1.637 6.653 4.86 7.405 5.225.688 10-3.09 12.265-7.549 2.038-3.826 2.219-8.397 1.327-12.563-.557-2.669-3.41-3.892-5.902-3.424-1.642.263-4.005-.028-4.926 1.667.73 1.289 1.124 3.401-1.067 3.411-2.753.759-5.41 2.697-5.981 5.652-.483 1.756-.554 3.59-.576 5.401zm25.387-7.202c-.471-1.468 1.408-3.388 2.447-1.581 1.965 2.593 2.96 5.761 4.185 8.74 1.341-3.563 2.61-7.669 6.1-9.713 2.828-1.547 7.13-.331 7.993 2.979.454 1.19-.055 2.761-1.481 2.864-1.94.88-2.398-2.259-4.237-1.859-2.303.27-3.242 2.765-3.565 4.755-.376 2.487-.234 5.045.512 7.453.278 1.334.712 2.817.176 4.131-1.158 1.516-3.382.538-4.337-.716-2.835-3.214-4.641-7.185-6.189-11.143-.66-1.925-1.466-3.862-1.604-5.911zm21.565 5.226c.128-4.421 2.953-8.592 6.808-10.663 2.795-1.45 6.721-.644 8.236 2.264.523.865.935 2.623-.616 1.932-1.809-.455-3.619-1.543-5.531-.914-2.813.884-3.982 4.047-4.258 6.724-.181 2.133-.168 4.318.123 6.431.507 1.692 2.109 3.042 3.938 2.845 2.387.206 4.417-1.252 6.121-2.738 1.183-1.058 2.712-1.825 4.328-1.796.153 3.728-2.407 7.26-5.929 8.418-2.457.831-5.507 1.253-7.711-.435-3.561-2.854-5.301-7.616-5.509-12.068zm22.883-15.328c-.007-1.589.557-4.227 2.554-4.122 1.005 1.567.91 3.675 1.141 5.51.392 5.566-1.085 11.002-1.761 16.479-.154.996-.119 3.592.375 3.708-.505-3.259.646-7.343 4.044-8.545 3.383-1.204 7.852-.802 10.099 2.309 2.263 3.027 2.176 7.11 1.681 10.678.048 1.695-3.572 3.927-3.186 1.094.249-2.151.239-4.354.004-6.51-.222-2.179-1.792-4.533-4.214-4.415-2.708-.229-5.411 1.691-5.795 4.439-.525 2.294-.233 4.674.2 6.957-1.033 2.024-4.226.936-4.945-.884-1.778-3.897-1.459-8.339-1.342-12.515.185-4.742.865-9.449 1.148-14.183zm39.045 22.883c-2.908 1.957-5.71 4.659-9.435 4.729-2.989.31-6.633-.272-8.228-3.142-2.028-3.794-1.317-8.489.387-12.263 2.038-4.306 5.747-8.512 10.736-9.087 3.839-.32 7.896 2.018 9.009 5.815 1.899 5.527.886 11.601 2.789 17.127.937 1.18-1.016 4.381-2.326 2.604-1.371-1.69-2.009-3.841-2.933-5.783zm-15.153-3.777c-.06 1.797.421 4.232 2.524 4.601 4.602 1.156 9.894-2.015 10.693-6.78.228-2.066.237-4.177.069-6.252-.231-1.555-.759-3.726-2.661-3.87-4.189-.018-7.651 3.267-9.329 6.881-.777 1.694-1.267 3.551-1.296 5.42zm23.542-9.004c-.471-1.468 1.408-3.388 2.447-1.581 1.965 2.593 2.96 5.761 4.185 8.74 1.341-3.563 2.61-7.669 6.1-9.713 2.828-1.547 7.13-.331 7.993 2.979.454 1.19-.055 2.761-1.481 2.864-.851.29-1.599.055-2.092-.675-.59-.475-.991-1.386-1.889-1.202-2.159.044-3.297 2.226-3.685 4.083-.552 2.692-.43 5.515.376 8.144.278 1.334.712 2.817.176 4.131-1.158 1.516-3.382.538-4.337-.716-2.835-3.214-4.641-7.185-6.189-11.143-.66-1.925-1.466-3.862-1.604-5.911zm21.477 13.264c-.088-4.508 3.681-7.894 7.353-9.864 2.909-1.589 6.084-2.584 9.19-3.705 1.152-1.97-.082-4.611-.049-6.854-.394-2.736-.473-5.498-.419-8.257 1.675-1.111 3.82.697 2.883 2.531.176 2.639.752 5.25 1.053 7.883.928 6.685 2.084 13.355 2.731 20.07.421 1.785.19 4.074-2.163 2.936-1.661-.258-.221-4.95-2.342-2.895-3.053 2.347-6.858 3.631-10.712 3.554-2.757.144-6.303-.604-7.263-3.579a5.44 5.44 0 0 1-.262-1.818zm3.821-.922c.067 2.27 2.893 2.763 4.665 2.282 3.873-.623 8.008-3.295 8.626-7.427.61-2.132-1.499-3.518-3.418-2.854-3.793.826-7.786 2.788-9.577 6.417-.195.503-.297 1.042-.296 1.581zm23.498-10.366c.22-1.549-.354-3.445.539-4.753.792-.893 2.905-1.984 2.528.053.744 6.152 3.212 11.977 3.709 18.169.44 1.643-.633 3.644-2.554 3.032-1.949-.594-2.697-2.81-3.168-4.595-.954-3.891-1.084-7.918-1.054-11.905zm.615-16.47c1.25.408 2.826 2.6 1.128 3.392-1.242.312-3.893.015-3.151-1.828.259-.912 1.021-1.657 2.023-1.563zm16.338 30.964c2.674-1.997 5.543-4.032 7.18-7.019 1.147-2.002-1.011-3.186-2.773-2.519-3.488.141-7.306.538-10.446-1.303-2.741-1.782-2.797-5.538-1.908-8.349 1.464-4.501 5.805-7.181 9.923-8.963 1.414.523 4.355 2.007 3.319 3.68-1.91 1.899-4.907 1.84-7.1 3.298-2.365 1.279-3.68 4.529-2.435 6.985 1.597 1.868 4.341 1.402 6.527 1.286 2.464-.148 5.135-.665 7.446.452 2.106 1.089 2.066 3.935.982 5.743-1.85 3.52-4.507 6.925-8.227 8.562-1.383.477-2.686-.274-2.488-1.853zm12.254-20.16c.293-1.752 2.224-1.323 3.511-1.362h6.371c-.222-3.432-1.189-7.19.518-10.389.925-1.593 3.371-1.426 2.552.786.169 3.532.488 7.475 3.007 10.195 2.584 2.234 6.127 1.13 9.075.425 2.13-.801 3.539 2.151 1.658 3.332-1.707.707-3.69.53-5.514.848-1.911.181-3.825.344-5.745.386-.982 2.091.158 4.807.844 6.971 1.132 3.158 2.931 6.306 2.656 9.764-.667 2.526-3.958.674-4.56-.995-2.327-4.838-.833-10.545-3.092-15.397-2.215-2.173-5.799-1.782-8.61-2.788-1.057-.265-2.597-.355-2.673-1.776z"/></svg>